<ttFont>
          <CharString index="0">
            rmoveto
            30 -19 15 -36 -34 -20 -15 -48 callsubr
            -28 20 -16 34 36 19 16 28 vhcurveto
            172 29 44 callsubr
            15 -35 -35 -19 -15 -48 callsubr
            -28 19 -16 35 35 20 16 28 vhcurveto
            endchar
          </CharString>
          <CharString index="1">
            155 462 -57 callsubr
            -267 vlineto
            -85 -45 -46 -88 -88 -45 46 85 vhcurveto
            -85 9 rmoveto
            -132 63 -83 155 155 63 83 132 vhcurveto
            249 -74 callsubr
            return
          </CharString>
          <CharString index="2">
            hstemhm
            3 callsubr
            hintmask 11001100
            -106 callsubr
            return
          </CharString>
          <CharString index="3">
            rmoveto
            -57 -60 -2 -2 -56 hvcurveto
            -663 85 282 vlineto
            -2 36 27 0 28 hhcurveto
            19 hlineto
            158 -280 rlineto
            95 hlineto
            -167 296 rlineto
            75 28 46 71 72 vvcurveto
            26 vlineto
            106 -66 68 -163 vhcurveto
            -2 -71 rmoveto
            105 41 -36 -72 hvcurveto
            -19 vlineto
            -72 -41 -43 -102 -22 -22 1 3 -45 vhcurveto
            236 vlineto
            1 27 37 1 22 hhcurveto
            return
          </CharString>
          <CharString index="4">
            -20 -105 callsubr
            hintmask 00110000
            return
          </CharString>
          <CharString index="5">
            20 callsubr
            hintmask 10110011
            -98 callsubr
            hintmask 01110011
            -78 81 vlineto
            hintmask 10110011
            -81 callsubr
            return
          </CharString>
          <CharString index="6">
            -77 callsubr
            vhcurveto
            -29 vlineto
            -78 callsubr
            return
          </CharString>
          <CharString index="7">
            429 hmoveto
            92 hlineto
            -201 655 rlineto
            -105 hlineto
            -200 -655 -56 callsubr
            -120 425 -41 callsubr
            return
          </CharString>
          <CharString index="8">
            -101 callsubr
            endchar
          </CharString>
          <CharString index="9">
            394 339 -53 callsubr
            -73 -46 callsubr
            -53 vlineto
            7 callsubr
            -94 -57 -61 -80 hvcurveto
            -28 vlineto
            -93 51 -56 76 47 45 30 60 39 vhcurveto
            return
          </CharString>
          <CharString index="10">
            248 667 -104 callsubr
            return
          </CharString>
          <CharString index="11">
            hstemhm
            hintmask 11100000
            -100 callsubr
            return
          </CharString>
          <CharString index="12">
            rmoveto
            29 -19 15 -35 -34 -19 -15 -29 vhcurveto
            -28 vlineto
            -23 12 -14 22 -5 vhcurveto
            -23 -99 rlineto
            59 hlineto
            30 89 rlineto
            5 16 2 14 20 vvcurveto
            return
          </CharString>
          <CharString index="13">
            416 655 rmoveto
            -461 vlineto
            -87 -47 -44 -81 -81 -47 44 87 vhcurveto
            461 -85 -450 vlineto
            -144 75 -73 138 142 71 79 140 vhcurveto
            448 vlineto
            return
          </CharString>
          <CharString index="14">
            -24 callsubr
            256 85 hintmask 11001100
            -94 callsubr
            hintmask 00110000
            return
          </CharString>
          <CharString index="15">
            -20 -96 callsubr
            hintmask 00011000
            return
          </CharString>
          <CharString index="16">
            70 164 rmoveto
            -118 51 -58 135 38 55 10 8 44 vhcurveto
            4 75 rlineto
            -7 -35 -63 -11 -43 hhcurveto
            -70 -31 28 68 hvcurveto
            59 257 103 vlineto
            116 -60 63 -112 -115 -55 -64 -115 vhcurveto
            85 13 rmoveto
            62 34 33 51 52 35 -32 -66 vhcurveto
            -45 -172 vlineto
            return
          </CharString>
          <CharString index="17">
            337 163 -7 callsubr
            162 -35 callsubr
            113 -54 69 -122 -122 -54 -69 -113 vhcurveto
            -148 vlineto
            -113 54 -69 122 122 54 69 113 vhcurveto
            return
          </CharString>
          <CharString index="18">
            rmoveto
            140 -49 -5 callsubr
            61 -140 -61 rlineto
            -68 vlineto
            endchar
          </CharString>
          <CharString index="19">
            rmoveto
            21 -14 15 -35 -27 -17 -15 -21 vhcurveto
            -25 vlineto
            -21 8 -10 21 -7 vhcurveto
            -17 -76 rlineto
            51 hlineto
            22 66 rlineto
            5 16 3 13 18 vvcurveto
            return
          </CharString>
          <CharString index="20">
            -24 callsubr
            232 85 hintmask 11100110
            -97 callsubr
            hintmask 00011000
            return
          </CharString>
          <CharString index="21">
            61 callsubr
            hintmask 00100000
            36 callsubr
            hintmask 00010000
            -28 callsubr
            hintmask 00100000
            -70 vlineto
            hintmask 00010000
            35 callsubr
            hintmask 00100000
            -43 callsubr
          </CharString>
          <CharString index="22">
            -24 callsubr
            hintmask 11100100
            -84 callsubr
            hintmask 00011000
            return
          </CharString>
          <CharString index="23">
            420 -83 callsubr
            -345 -655 vlineto
            return
          </CharString>
          <CharString index="24">
            hmoveto
            77 -260 218 240 76 -240 207 260 77 return
          </CharString>
          <CharString index="25">
            rmoveto
            42 18 -14 -33 hvcurveto
            -13 vlineto
            -42 -17 -20 -51 vhcurveto
            -58 -59 58 hlineto
            55 21 -21 -43 hvcurveto
            -13 vlineto
            -35 -20 -21 -44 -29 -44 4 4 -26 vhcurveto
            -61 vlineto
            -5 33 39 -4 25 hhcurveto
            95 50 51 71 hvcurveto
            7 vlineto
            45 -25 38 -45 18 vhcurveto
            43 20 17 28 44 vvcurveto
            7 vlineto
            66 -44 42 -93 -26 -36 -4 -5 -33 vhcurveto
            -62 vlineto
            4 26 40 6 29 hhcurveto
            endchar
          </CharString>
          <CharString index="26">
            -193 64 rmoveto
            -34 -26 28 51 hvcurveto
            11 vlineto
            -29 callsubr
            -77 vlineto
            -58 -32 -41 -32 -35 hhcurveto
            return
          </CharString>
          <CharString index="27">
            rmoveto
            -49 -20 -22 -44 -25 -28 3 1 -11 vhcurveto
            -71 vlineto
            -2 9 29 -4 22 hhcurveto
            106 47 50 99 hvcurveto
            536 -85 vlineto
            return
          </CharString>
          <CharString index="28">
            8 callsubr
            64 -21 119 -103 callsubr
            return
          </CharString>
          <CharString index="29">
            -29 20 -16 35 36 20 16 29 vhcurveto
            return
          </CharString>
          <CharString index="30">
            44 callsubr
            16 -36 -35 -20 -16 -30 return
          </CharString>
          <CharString index="31">
            -20 hstemhm
            70 85 172 85 hintmask 11100110
            -91 callsubr
            hintmask 00011000
            return
          </CharString>
          <CharString index="32">
            2 callsubr
            -68 46 -32 69 70 45 32 68 vhcurveto
            -65 hmoveto
            -60 callsubr
          </CharString>
          <CharString index="33">
            vlineto
            132 -63 83 -155 -155 -63 -83 -132 vhcurveto
            return
          </CharString>
          <CharString index="34">
            -95 callsubr
            hintmask 11000000
            140 30 -95 callsubr
            endchar
          </CharString>
          <CharString index="35">
            336 38 callsubr
            -340 vlineto
            -42 callsubr
            -333 vlineto
            -112 52 -55 81 52 45 29 53 36 vhcurveto
            return
          </CharString>
          <CharString index="36">
            rmoveto
            -89 hlineto
            -66 -119 rlineto
            70 hlineto
            endchar
          </CharString>
          <CharString index="37">
            hstemhm
            37 callsubr
            hintmask 11001100
            -90 callsubr
            return
          </CharString>
          <CharString index="38">
            rmoveto
            -29 19 -15 35 34 19 15 29 vhcurveto
            28 vlineto
            23 -12 14 -22 5 vhcurveto
            23 99 rlineto
            -59 hlineto
            -30 -89 rlineto
            -5 -16 -2 -14 -20 vvcurveto
            return
          </CharString>
          <CharString index="39">
            431 38 callsubr
            -88 hlineto
            -130 -427 -105 427 rlineto
            -93 hlineto
            139 -488 rlineto
            32 hlineto
            -64 -185 rlineto
            85 hlineto
            return
          </CharString>
          <CharString index="40">
            655 rmoveto
            -85 -531 hlineto
            -45 -23 -18 -41 -25 -32 3 2 -11 vhcurveto
            -71 vlineto
            -3 9 33 -4 22 hhcurveto
            107 46 49 102 hvcurveto
            return
          </CharString>
          <CharString index="41">
            -50 callsubr
            96 -21 119 -92 callsubr
            return
          </CharString>
          <CharString index="42">
            rmoveto
            53 19 -15 -32 hvcurveto
            -16 vlineto
            -29 -5 -13 -26 -30 vhcurveto
            -148 -170 rlineto
            -60 256 66 -161 vlineto
            97 104 rlineto
            49 53 14 35 45 vvcurveto
            18 vlineto
            69 -43 39 -105 -27 -38 -7 -9 -33 vhcurveto
            -65 vlineto
            9 27 41 8 30 hhcurveto
            return
          </CharString>
          <CharString index="43">
            23 callsubr
            hintmask 10100110
            -72 callsubr
            hintmask 01100110
            -70 80 488 vlineto
            hintmask 00011000
            return
          </CharString>
          <CharString index="44">
            -80 callsubr
            98 161 -99 callsubr
          </CharString>
          <CharString index="45">
            35 19 3 7 44 hvcurveto
            -2 75 rlineto
            -58 callsubr
            rlineto
            7 -44 -19 3 -35 hhcurveto
            -125 -56 -66 -116 hvcurveto
            -148 vlineto
            return
          </CharString>
          <CharString index="46">
            507 hmoveto
            655 -84 -553 vlineto
            -212 553 rlineto
            -136 -655 84 553 hlineto
            216 -553 rlineto
            return
          </CharString>
          <CharString index="47">
            -26 -13 -19 -37 -37 -13 19 26 26 13 19 37 37 13 -19 -26 vhcurveto
            endchar
          </CharString>
          <CharString index="48">
            rmoveto
            -85 hlineto
            -76 -139 rlineto
            66 hlineto
            endchar
          </CharString>
          <CharString index="49">
            -6 -35 -22 -4 -39 hhcurveto
            -60 -36 33 68 hvcurveto
            161 vlineto
            64 33 36 63 39 22 -4 -6 35 vhcurveto
            2 75 return
          </CharString>
          <CharString index="50">
            rmoveto
            84 44 46 89 89 44 -47 -84 vhcurveto
            return
          </CharString>
          <CharString index="51">
            rlineto
            87 hlineto
            43 152 rlineto
            241 hlineto
            return
          </CharString>
          <CharString index="52">
            -14 -12 -10 -29 -10 -12 2 2 -14 vhcurveto
            -53 vlineto
            -3 18 15 -2 16 hhcurveto
            64 31 24 53 hvcurveto
            endchar
          </CharString>
          <CharString index="53">
            -24 callsubr
            hintmask 11001000
            -49 callsubr
            hintmask 00110000
            return
          </CharString>
          <CharString index="54">
            rmoveto
            112 -51 49 -114 -35 -56 -8 -7 -44 vhcurveto
            return
          </CharString>
          <CharString index="55">
            -19 callsubr
            76 -21 119 -85 callsubr
            return
          </CharString>
          <CharString index="56">
            -1 callsubr
            455 421 rmoveto
            -104 -289 20 -42 rlineto
            171 -90 77 90 56 64 -56 132 -76 -132 -109 hlineto
            93 267 rlineto
            return
          </CharString>
          <CharString index="57">
            54 21 -21 152 76 427 -20 return
          </CharString>
          <CharString index="58">
            15 callsubr
            655 14 callsubr
            return
          </CharString>
          <CharString index="59">
            -30 -33 callsubr
            return
          </CharString>
          <CharString index="60">
            rmoveto
            70 hlineto
            -66 119 rlineto
            -89 hlineto
            endchar
          </CharString>
          <CharString index="61">
            vlineto
            6 35 61 9 39 hhcurveto
            54 26 -22 -59 hvcurveto
            return
          </CharString>
          <CharString index="62">
            -26 callsubr
            176 85 vstem
            -8 callsubr
            39 hhcurveto
            38 27 -27 -73 10 callsubr
            -50 -43 -28 -49 -35 vhcurveto
            return
          </CharString>
          <CharString index="63">
            rmoveto
            66 -80 355 -65 vlineto
            -128 -48 15 -67 98 39 rlineto
            -279 -92 -66 vlineto
            endchar
          </CharString>
          <CharString index="64">
            41 37 -25 44 hhcurveto
            46 34 30 0 hvcurveto
            endchar
          </CharString>
          <CharString index="65">
            -51 -30 -42 -30 -39 hhcurveto
            -39 -26 30 73 hvcurveto
            318 -85 return
          </CharString>
          <CharString index="66">
            rmoveto
            98 -349 rlineto
            -198 hlineto
            return
          </CharString>
          <CharString index="67">
            19 callsubr
            -13 vlineto
            -55 callsubr
          </CharString>
          <CharString index="68">
            -20 hstemhm
            hintmask 11100000
            -68 callsubr
            hintmask 00011000
            return
          </CharString>
          <CharString index="69">
            -2 77 rlineto
            -6 -33 -54 -10 -49 hhcurveto
            -92 -36 34 86 hvcurveto
            286 vlineto
            87 37 34 91 49 54 -10 -6 33 vhcurveto
            2 75 rlineto
            7 -44 -49 9 -45 hhcurveto
            return
          </CharString>
          <CharString index="70">
            rmoveto
            29 -19 16 -36 -35 -19 -16 -29 -33 callsubr
            -23 12 -15 23 -5 vhcurveto
            -36 -152 rlineto
            60 hlineto
            43 142 rlineto
            5 16 2 15 20 vvcurveto
            endchar
          </CharString>
          <CharString index="71">
            hstemhm
            75 84 264 84 hintmask 11001100
            -61 callsubr
            return
          </CharString>
          <CharString index="72">
            25 callsubr
            57 34 -35 -68 vhcurveto
            85 -8 rmoveto
            return
          </CharString>
          <CharString index="73">
            21 0 callsubr
            return
          </CharString>
          <CharString index="74">
            vhcurveto
            -29 vlineto
            return
          </CharString>
          <CharString index="75">
            148 -269 rmoveto
            -37 -26 26 76 hvcurveto
            155 vlineto
            72 29 31 46 31 42 -21 -29 28 vhcurveto
            -220 vlineto
            -58 -32 -42 -32 -39 hhcurveto
            endchar
          </CharString>
          <CharString index="76">
            195 609 rmoveto
            38 27 -28 -75 hvcurveto
            -154 vlineto
            -70 -27 -34 -55 -28 -36 13 23 -29 vhcurveto
            245 vlineto
            50 29 42 30 39 hhcurveto
            endchar
          </CharString>
          <CharString index="77">
            262 vlineto
            165 -262 rlineto
            102 hlineto
            -178 274 166 214 rlineto
            -95 hlineto
            -160 -214 rlineto
            409 41 callsubr
          </CharString>
          <CharString index="78">
            52 30 32 56 21 34 -2 -5 27 vhcurveto
            return
          </CharString>
          <CharString index="79">
            -38 -30 25 -54 hhcurveto
            -46 -34 -30 0 hvcurveto
            return
          </CharString>
          <CharString index="80">
            -21 488 -20 return
          </CharString>
          <CharString index="81">
            -20 -17 callsubr
            return
          </CharString>
          <CharString index="82">
            829 -71 callsubr
          </CharString>
          <CharString index="83">
            -20 -3 callsubr
            return
          </CharString>
          <CharString index="84">
            -102 53 -58 105 105 52 58 102 vhcurveto
            -85 hmoveto
            -60 -24 -25 -48 -49 -24 25 60 vhcurveto
            30 vlineto
            60 25 25 48 48 24 -24 -61 vhcurveto
            return
          </CharString>
          <CharString index="85">
            75 -53 -80 callsubr
            return
          </CharString>
          <CharString index="86">
            93 -170 -93 -170 rlineto
            88 hlineto
            100 170 -100 170 rlineto
            return
          </CharString>
          <CharString index="87">
            -100 -170 100 -170 rlineto
            88 hlineto
            -93 170 93 170 rlineto
            return
          </CharString>
          <CharString index="88">
            3 0 77 218 28 callsubr
            return
          </CharString>
          <CharString index="89">
            165 hmoveto
            488 60 callsubr
            return
          </CharString>
          <CharString index="90">
            hstem
            75 85 return
          </CharString>
          <CharString index="91">
            rmoveto
            -4 62 49 -2 67 hhcurveto
            167 86 91 162 hvcurveto
            164 vlineto
            170 -90 92 -158 -77 -61 -2 -2 -45 vhcurveto
            return
          </CharString>
          <CharString index="92">
            480 655 rmoveto
            -95 hlineto
            -137 -340 -136 340 rlineto
            -97 hlineto
            190 -430 rlineto
            -225 85 225 vlineto
            return
          </CharString>
          <CharString index="93">
            335 vlineto
            49 29 39 21 43 hhcurveto
            18 11 -1 -2 10 hvcurveto
            96 vlineto
            1 -4 -9 1 -9 hhcurveto
            -52 -46 -31 -54 -35 hvcurveto
            return
          </CharString>
          <CharString index="94">
            -13 -12 76 -43 -21 238 68 121 73 return
          </CharString>
          <CharString index="95">
            39 callsubr
            96 -21 119 -54 callsubr
            return
          </CharString>
          <CharString index="96">
            21 callsubr
            165 38 callsubr
            -20 callsubr
            return
          </CharString>
          <CharString index="97">
            rmoveto
            1 31 30 1 32 hhcurveto
            104 64 -61 -123 hvcurveto
            -177 vlineto
            -114 -68 -59 -100 -25 -29 2 4 -39 vhcurveto
            return
          </CharString>
          <CharString index="98">
            160 -185 rmoveto
            208 vlineto
            -17 29 44 -18 37 hhcurveto
            91 59 62 105 hvcurveto
            178 vlineto
            110 -50 57 -83 return
          </CharString>
          <CharString index="99">
            15 callsubr
            339 24 callsubr
            return
          </CharString>
          <CharString index="100">
            rmoveto
            -68 -34 -36 -57 -57 -34 36 68 vhcurveto
            return
          </CharString>
          <CharString index="101">
            -4 callsubr
            15 callsubr
            return
          </CharString>
          <CharString index="102">
            rlineto
            68 vlineto
            -140 return
          </CharString>
          <CharString index="103">
            -26 callsubr
            vstem
            return
          </CharString>
          <CharString index="104">
            hstemhm
            75 85 return
          </CharString>
          <CharString index="105">
            265 rmoveto
            71 -140 152 -76 -152 -140 -71 140 -152 76 152 vlineto
            endchar
          </CharString>
          <CharString index="106">
            hmoveto
            305 601 rlineto
            -83 hlineto
            -305 -601 rlineto
            return
          </CharString>
          <CharString index="107">
            -21 655 -20 return
          </CharString>
          <CharString index="108">
            37 25 -25 40 hhcurveto
            40 30 21 9 10 hvcurveto
            endchar
          </CharString>
          <CharString index="109">
            rmoveto
            68 -46 32 -69 -70 -45 -32 -68 return
          </CharString>
          <CharString index="110">
            70 85 266 85 return
          </CharString>
          <CharString index="111">
            27 -16 17 -33 -32 -16 -17 -27 0 0 -17 0 vhcurveto
            -26 16 -17 32 33 16 17 26 vhcurveto
            return
          </CharString>
          <CharString index="112">
            vlineto
            -6 38 29 -2 29 hhcurveto
            152 71 74 121 hvcurveto
            24 vlineto
            114 -72 68 -159 return
          </CharString>
          <CharString index="113">
            -120 rmoveto
            15 vlineto
            38 -24 26 -28 vhcurveto
            -10 hlineto
            return
          </CharString>
          <CharString index="114">
            6 -30 -44 7 -29 hhcurveto
            return
          </CharString>
          <CharString index="115">
            94 -12 75 529 75 return
          </CharString>
          <CharString index="116">
            44 hhcurveto
            104 44 -40 -74 hvcurveto
            -17 vlineto
            -84 -48 -42 -94 -24 -23 2 6 -45 vhcurveto
            endchar
          </CharString>
          <CharString index="117">
            12 callsubr
            -48 60 -85 return
          </CharString>
          <CharString index="118">
            -34 -18 25 -50 hhcurveto
            -38 -34 -22 -8 -8 hvcurveto
            return
          </CharString>
          <CharString index="119">
            hvcurveto
            -321 85 333 vlineto
            107 return
          </CharString>
          <CharString index="120">
            21 -27 callsubr
            return
          </CharString>
          <CharString index="121">
            -85 -655 vlineto
            return
          </CharString>
          <CharString index="122">
            160 hmoveto
            return
          </CharString>
          <CharString index="123">
            -132 263 65 hstem
            285 263 rmoveto
            65 -220 -65 vlineto
            endchar
          </CharString>
          <CharString index="124">
            rmoveto
            -68 vlineto
            140 -61 140 61 -5 callsubr
            -49 rlineto
            endchar
          </CharString>
          <CharString index="125">
            rmoveto
            130 -65 rlineto
            70 vlineto
            -130 74 -130 -74 rlineto
            -70 vlineto
            endchar
          </CharString>
          <CharString index="126">
            rlineto
            -21 30 vlineto
            23 10 -6 -20 1 hvcurveto
            return
          </CharString>
          <CharString index="127">
            hstemhm
            55 86 168 85 return
          </CharString>
          <CharString index="128">
            169 -21 340 -20 hstem
            return
          </CharString>
          <CharString index="129">
            -21 282 72 242 71 return
          </CharString>
          <CharString index="130">
            -24 callsubr
            176 85 return
          </CharString>
          <CharString index="131">
            vlineto
            51 29 43 31 return
          </CharString>
          <CharString index="132">
            vlineto
            68 34 36 57 return
          </CharString>
          <CharString index="133">
            hhcurveto
            38 56 10 8 44 hvcurveto
            4 75 rlineto
            -7 -35 -64 -11 -43 hhcurveto
            return
          </CharString>
          <CharString index="134">
            -15 -12 75 155 68 143 71 return
          </CharString>
          <CharString index="135">
            76 207 77 return
          </CharString>
          <CharString index="136">
            73 -80 52 callsubr
            endchar
          </CharString>
          <CharString index="137">
            rmoveto
            30 vlineto
            102 -52 58 -105 -105 -53 -58 -102 vhcurveto
            -30 vlineto
            return
          </CharString>
          <CharString index="138">
            -247 21 -21 683 -6 callsubr
            return
          </CharString>
          <CharString index="139">
            -247 -197 73 612 -20 return
          </CharString>
          <CharString index="140">
            -34 callsubr
            hstem
            return
          </CharString>
          <CharString index="141">
            13 callsubr
            hstem
            return
          </CharString>
          <CharString index="142">
            0 45 25 33 vhcurveto
            return
          </CharString>
          <CharString index="143">
            0 -45 -25 -33 vhcurveto
            return
          </CharString>
          <CharString index="144">
            70 85 182 85 return
          </CharString>
          <CharString index="145">
            488 rmoveto
            return
          </CharString>
          <CharString index="146">
            -247 -34 callsubr
            return
          </CharString>
          <CharString index="147">
            -17 callsubr
            200 85 vstem
            return
          </CharString>
          <CharString index="148">
            -85 -683 vlineto
            endchar
          </CharString>
          <CharString index="149">
            -21 139 -20 return
          </CharString>
          <CharString index="150">
            -21 120 -20 return
          </CharString>
          <CharString index="151">
            rmoveto
            30 -20 return
          </CharString>
          <CharString index="152">
            -210 73 callsubr
            97 -27 callsubr
            return
          </CharString>
          <CharString index="153">
            38 -119 70 348 70 348 70 hstem
            return
          </CharString>
          <CharString index="154">
            85 vstem
            75 429 rmoveto
            85 254 -85 hlineto
            return
          </CharString>
          <CharString index="155">
            21 -21 421 79 return
          </CharString>
          <CharString index="156">
            -164 -21 173 return
          </CharString>
          <CharString index="157">
            72 callsubr
            vstem
            return
          </CharString>
          <CharString index="158">
            42 callsubr
            hstemhm
            return
          </CharString>
          <CharString index="159">
            -488 vlineto
            return
          </CharString>
          <CharString index="160">
            -156 -57 -66 -136 hvcurveto
            -275 vlineto
            return
          </CharString>
          <CharString index="161">
            38 120 -21 395 -20 hstem
            440 return
          </CharString>
          <CharString index="162">
            10 -12 71 370 71 return
          </CharString>
          <CharString index="163">
            9 14 41 16 23 hhcurveto
            return
          </CharString>
          <CharString index="164">
            -7 -10 -43 -18 -25 hhcurveto
            return
          </CharString>
          <CharString index="165">
            -20 hstem
            217 85 vstem
            return
          </CharString>
          <CharString index="166">
            rmoveto
            70 -354 -70 vlineto
            return
          </CharString>
          <CharString index="167">
            -85 52 callsubr
            return
          </CharString>
          <CharString index="168">
            rmoveto
            70 vlineto
            return
          </CharString>
          <CharString index="169">
            7 8 -35 vhcurveto
            -2 -75 rlineto
            -9 44 return
          </CharString>
          <CharString index="170">
            -164 -21 206 -27 callsubr
            return
          </CharString>
          <CharString index="171">
            70 155 rmoveto
            -110 46 -57 82 return
          </CharString>
          <CharString index="172">
            -97 731 -21 119 -20 hstem
            return
          </CharString>
          <CharString index="173">
            -22 567 -21 144 -20 hstem
            return
          </CharString>
          <CharString index="174">
            72 -17 callsubr
            261 85 vstem
            return
          </CharString>
          <CharString index="175">
            38 -119 72 762 72 hstem
            return
          </CharString>
          <CharString index="176">
            38 -116 70 760 70 hstem
            return
          </CharString>
          <CharString index="177">
            -21 213 -20 return
          </CharString>
          <CharString index="178">
            75 -50 75 hstemhm
            return
          </CharString>
          <CharString index="179">
            75 hstem
            70 85 return
          </CharString>
          <CharString index="180">
            -21 175 -20 return
          </CharString>
        <CharString name=".notdef">
          66 0 68 547 68 hstem
          80 hmoveto
          388 683 -388 hlineto
          68 -615 rmoveto
          547 252 -547 vlineto
          endchar
        </CharString>
        <CharString name=".null">
          endchar
        </CharString>
        <CharString name="A">
          -50 callsubr
          hstem
          -100 callsubr
          endchar
        </CharString>
        <CharString name="AE">
          292 0 77 75 76 67 28 callsubr
          hstem
          364 85 vstem
          709 -83 callsubr
          -401 vlineto
          -293 -655 rlineto
          89 hlineto
          66 152 rlineto
          194 -152 hlineto
          -161 228 rmoveto
          161 369 rlineto
          -369 vlineto
          endchar
        </CharString>
        <CharString name="Aacute">
          -66 callsubr
          194 601 -71 callsubr
        </CharString>
        <CharString name="Acircumflex">
          -50 callsubr
          97 -21 129 -92 callsubr
          104 532 -89 callsubr
        </CharString>
        <CharString name="Adieresis">
          -50 callsubr
          96 -21 118 -92 callsubr
          69 555 -107 callsubr
        </CharString>
        <CharString name="Agrave">
          -66 callsubr
          85 482 -47 callsubr
        </CharString>
        <CharString name="Aring">
          -50 callsubr
          165 -20 hstem
          383 700 2 callsubr
          -43 18 -29 31 -15 vhcurveto
          -187 -613 -56 callsubr
          43 -152 rlineto
          92 hlineto
          -188 612 rlineto
          31 15 19 29 44 vvcurveto
          -117 -123 -41 callsubr
          152 472 rmoveto
          -60 callsubr
        </CharString>
        <CharString name="Atilde">
          -50 callsubr
          75 75 -50 75 -96 callsubr
          hintmask 00001000
          244 512 61 callsubr
          hintmask 00010000
          36 callsubr
          hintmask 00001000
          -28 callsubr
          hintmask 00010000
          -70 vlineto
          hintmask 00001000
          35 callsubr
          hintmask 00010000
          -43 callsubr
        </CharString>
        <CharString name="B">
          46 -12 74 236 69 227 73 -3 callsubr
          221 85 -58 85 hintmask 11110100
          75 -6 rmoveto
          -5 97 25 -1 61 hhcurveto
          163 72 76 105 hvcurveto
          22 vlineto
          78 -45 55 -74 16 vhcurveto
          hintmask 11111000
          64 28 28 51 66 vvcurveto
          22 vlineto
          95 -71 65 -144 -71 -59 -2 -2 -46 vhcurveto
          85 -365 rmoveto
          104 hlineto
          hintmask 11110100
          101 43 -37 -66 hvcurveto
          -21 vlineto
          -67 -44 -45 -106 -34 -10 1 5 -54 vhcurveto
          523 vmoveto
          2 28 26 1 24 hhcurveto
          hintmask 11111000
          103 40 -36 -64 hvcurveto
          -17 vlineto
          -69 -42 -41 -81 vhcurveto
          -98 hlineto
          endchar
        </CharString>
        <CharString name="C">
          -6 -12 77 527 50 callsubr
          283 667 rmoveto
          53 callsubr
          -134 55 -68 158 45 49 9 7 44 vhcurveto
          -38 callsubr
          endchar
        </CharString>
        <CharString name="CR">
          -182 endchar
        </CharString>
        <CharString name="Ccedilla">
          -6 -176 -21 185 77 527 50 callsubr
          349 6 callsubr
          9 29 41 2 44 8 40 6 rlinecurve
          -38 callsubr
          53 callsubr
          -119 43 -67 120 -13 vhcurveto
          -15 -50 -40 callsubr
        </CharString>
        <CharString name="D">
          89 -12 73 534 67 callsubr
          160 593 -10 callsubr
          -85 -73 -16 callsubr
          endchar
        </CharString>
        <CharString name="E">
          -19 callsubr
          -17 callsubr
          vstem
          -84 callsubr
          endchar
        </CharString>
        <CharString name="Eacute">
          -52 callsubr
          275 -25 callsubr
        </CharString>
        <CharString name="Ecircumflex">
          -19 callsubr
          77 -21 129 -85 callsubr
          189 760 -89 callsubr
        </CharString>
        <CharString name="Edieresis">
          -19 callsubr
          76 -21 118 -85 callsubr
          137 783 -107 callsubr
        </CharString>
        <CharString name="Egrave">
          -52 callsubr
          170 710 -47 callsubr
        </CharString>
        <CharString name="Eth">
          89 -12 73 242 70 222 67 callsubr
          75 -6 -16 callsubr
          -290 -70 -70 70 vlineto
          85 290 -10 callsubr
          236 135 70 -135 vlineto
          endchar
        </CharString>
        <CharString name="Euro">
          38 -12 75 131 70 62 70 144 73 hstem
          130 85 vstem
          409 326 rmoveto
          15 70 rlineto
          -209 23 hlineto
          86 34 35 79 49 52 -9 -7 35 vhcurveto
          2 73 rlineto
          8 -44 -49 8 -45 hhcurveto
          -142 -56 -67 -135 hvcurveto
          -15 -62 vlineto
          -15 -70 rlineto
          77 -62 -68 hlineto
          -15 -70 rlineto
          83 -4 hlineto
          -134 53 -68 145 45 49 8 8 44 vhcurveto
          -2 75 rlineto
          -7 -35 -52 -9 -49 hhcurveto
          -79 -34 35 85 hvcurveto
          11 167 vlineto
          15 70 rlineto
          -182 62 hlineto
          endchar
        </CharString>
        <CharString name="F">
          3 21 -21 295 28 callsubr
          -17 callsubr
          vstem
          420 578 rmoveto
          77 -345 -655 85 295 196 76 -196 207 vlineto
          endchar
        </CharString>
        <CharString name="G">
          78 -12 75 235 80 216 73 hstem
          70 85 245 85 vstem
          283 -12 rmoveto
          70 77 20 17 55 hvcurveto
          353 -210 -80 125 -221 vlineto
          -8 -41 -43 -6 -33 hhcurveto
          -93 -35 36 85 hvcurveto
          290 vlineto
          85 35 35 93 59 76 -15 -7 36 vhcurveto
          2 73 rlineto
          9 -44 -75 13 -54 hhcurveto
          -151 -62 -61 -141 hvcurveto
          -275 vlineto
          -134 55 -68 158 vhcurveto
          endchar
        </CharString>
        <CharString name="H">
          98 21 -21 300 76 279 -26 callsubr
          260 85 vstem
          505 hmoveto
          655 -85 -279 -260 279 -85 -655 85 300 260 -300 vlineto
          endchar
        </CharString>
        <CharString name="I">
          -247 21 -21 655 -20 hstem
          75 85 vstem
          -49 callsubr
          endchar
        </CharString>
        <CharString name="IJ">
          65 -12 73 -40 -21 655 -24 callsubr
          227 85 hintmask 01110000
          -49 callsubr
          hintmask 10101000
          397 -67 callsubr
          endchar
        </CharString>
        <CharString name="Iacute">
          -12 callsubr
          135 -25 callsubr
        </CharString>
        <CharString name="Icircumflex">
          39 callsubr
          97 -21 129 -54 callsubr
          41 760 -89 callsubr
        </CharString>
        <CharString name="Idieresis">
          39 callsubr
          96 -21 118 -54 callsubr
          8 783 -107 callsubr
        </CharString>
        <CharString name="Igrave">
          -12 callsubr
          27 710 -47 callsubr
        </CharString>
        <CharString name="Itilde">
          39 callsubr
          75 71 callsubr
          75 85 hintmask 11001000
          -49 callsubr
          hintmask 00010000
          181 740 -86 callsubr
        </CharString>
        <CharString name="J">
          -170 -12 73 594 -20 hstem
          152 85 vstem
          237 -67 callsubr
          endchar
        </CharString>
        <CharString name="Jcircumflex">
          -159 -12 73 594 -20 97 -21 129 -20 hstemhm
          163 85 hintmask 11001000
          248 -67 callsubr
          hintmask 00110000
          -50 621 -89 callsubr
        </CharString>
        <CharString name="K">
          68 21 -21 655 -6 callsubr
          324 vlineto
          256 -324 rlineto
          109 hlineto
          -277 338 251 317 rlineto
          -95 hlineto
          -244 -316 rlineto
          316 14 callsubr
          endchar
        </CharString>
        <CharString name="L">
          -37 0 75 580 -4 callsubr
          420 hmoveto
          75 -260 580 14 callsubr
          endchar
        </CharString>
        <CharString name="Ldotaccent">
          -37 153 415 76 46 endchar
        </CharString>
        <CharString name="Lslash">
          -37 0 75 580 -4 callsubr
          5 268 rmoveto
          70 19 rlineto
          -287 345 75 -260 236 vlineto
          130 37 rlineto
          76 vlineto
          -130 -37 rlineto
          268 -85 -292 vlineto
          -70 -19 rlineto
          endchar
        </CharString>
        <CharString name="M">
          217 33 callsubr
          73 82 388 83 vstem
          629 hmoveto
          -6 655 rlineto
          -126 hlineto
          -147 -511 -148 511 rlineto
          -126 hlineto
          -6 -655 rlineto
          83 hlineto
          5 538 139 -470 rlineto
          105 hlineto
          139 470 5 -538 rlineto
          endchar
        </CharString>
        <CharString name="N">
          100 33 callsubr
          75 84 264 84 vstem
          -61 callsubr
          endchar
        </CharString>
        <CharString name="Nacute">
          100 -34 callsubr
          96 -21 119 -20 -36 callsubr
          hintmask 00110000
          41 -25 callsubr
        </CharString>
        <CharString name="Ntilde">
          100 -34 callsubr
          75 75 -50 75 -36 callsubr
          hintmask 00010000
          79 740 -86 callsubr
        </CharString>
        <CharString name="O">
          8 callsubr
          hstem
          3 callsubr
          vstem
          -106 callsubr
          endchar
        </CharString>
        <CharString name="OE">
          289 -12 75 -63 77 218 28 callsubr
          -63 75 hstemhm
          70 85 206 85 hintmask 01110110
          706 -83 callsubr
          -336 vlineto
          hintmask 10101110
          8 -28 -33 4 -35 hhcurveto
          -132 -72 -76 -139 hvcurveto
          -249 vlineto
          -137 68 -78 140 vhcurveto
          hintmask 01110110
          34 31 4 8 27 hvcurveto
          hintmask 10101110
          -87 63 rmoveto
          -84 -44 47 84 hvcurveto
          268 vlineto
          85 46 45 82 32 25 -4 -9 21 vhcurveto
          -508 vlineto
          -6 -20 -24 -2 -34 hhcurveto
          endchar
        </CharString>
        <CharString name="Oacute">
          -79 callsubr
          310 377 -71 callsubr
        </CharString>
        <CharString name="Ocircumflex">
          8 callsubr
          65 -21 129 -103 callsubr
          218 308 -89 callsubr
        </CharString>
        <CharString name="Odieresis">
          8 callsubr
          64 -21 118 -103 callsubr
          187 331 -107 callsubr
        </CharString>
        <CharString name="Ograve">
          -79 callsubr
          201 258 -47 callsubr
        </CharString>
        <CharString name="Oslash">
          94 -29 -21 38 75 529 75 38 -20 hstem
          3 callsubr
          vstem
          120 -50 rmoveto
          39 66 rlineto
          -18 33 42 -10 54 hhcurveto
          155 63 83 132 hvcurveto
          249 vlineto
          53 -10 45 -22 35 vhcurveto
          67 120 rlineto
          -85 hlineto
          -38 -67 rlineto
          19 -33 -43 10 -54 hhcurveto
          -155 -63 -83 -132 hvcurveto
          -249 vlineto
          -54 10 -46 23 -35 vhcurveto
          -68 -118 rlineto
          120 512 rmoveto
          84 44 46 89 41 32 -10 -20 22 vhcurveto
          -225 -407 rlineto
          -2 12 -1 13 14 vvcurveto
          266 267 rmoveto
          -267 vlineto
          -85 -45 -46 -88 -40 -32 9 19 -22 vhcurveto
          224 406 rlineto
          2 -11 1 -12 -13 vvcurveto
          endchar
        </CharString>
        <CharString name="Otilde">
          8 callsubr
          43 75 -50 75 -105 callsubr
          hintmask 00010000
          358 288 -86 callsubr
        </CharString>
        <CharString name="P">
          22 21 -21 266 73 257 71 -17 callsubr
          234 85 vstem
          15 callsubr
          274 5 callsubr
          -71 -51 -2 -3 -51 vhcurveto
          -662 vlineto
          85 594 rmoveto
          1 21 21 1 9 callsubr
        </CharString>
        <CharString name="Q">
          94 -64 -21 73 75 529 75 hstem
          3 callsubr
          vstem
          70 203 rmoveto
          -132 63 -83 156 8 8 0 1 8 vhcurveto
          196 -74 rlineto
          19 hlineto
          -2 79 -107 29 rlineto
          59 33 28 57 92 vvcurveto
          247 -74 callsubr
          85 10 -57 callsubr
          -262 vlineto
          -91 -44 -45 -89 -88 -45 46 85 vhcurveto
          endchar
        </CharString>
        <CharString name="R">
          66 21 22 callsubr
          -17 callsubr
          232 85 vstem
          -97 callsubr
          endchar
        </CharString>
        <CharString name="Racute">
          66 21 22 callsubr
          64 -21 119 -87 callsubr
          107 233 -71 callsubr
        </CharString>
        <CharString name="Rcaron">
          66 21 22 callsubr
          66 -21 129 -87 callsubr
          -125 245 17 callsubr
        </CharString>
        <CharString name="Rcommaaccent">
          66 -210 73 callsubr
          97 22 callsubr
          -3 callsubr
          232 85 hintmask 11000000
          319 -92 -88 callsubr
          hintmask 00111110
          -71 785 -104 callsubr
          endchar
        </CharString>
        <CharString name="S">
          -26 -12 77 527 75 hstem
          45 85 211 85 vstem
          211 387 rmoveto
          -67 21 -14 17 48 vvcurveto
          26 vlineto
          61 30 32 80 40 52 -7 -9 46 vhcurveto
          2 75 rlineto
          9 -49 -57 7 -34 hhcurveto
          -138 -57 -63 -113 hvcurveto
          -11 vlineto
          -99 31 -41 92 -30 vhcurveto
          103 -34 rlineto
          53 -17 17 -22 -46 vvcurveto
          -33 vlineto
          -61 -34 -32 -103 -34 -54 7 13 -54 vhcurveto
          -2 -77 rlineto
          -13 58 56 -7 32 hhcurveto
          161 59 63 114 hvcurveto
          19 vlineto
          98 -33 44 -89 30 vhcurveto
          endchar
        </CharString>
        <CharString name="T">
          33 21 -21 578 77 hstem
          215 85 vstem
          215 578 rmoveto
          -578 85 578 190 77 -465 -77 vlineto
          endchar
        </CharString>
        <CharString name="Thorn">
          78 21 -21 138 73 257 71 116 -26 callsubr
          234 85 vstem
          15 callsubr
          146 5 callsubr
          -24 -32 -2 -4 -32 vhcurveto
          122 14 callsubr
          85 463 rmoveto
          2 21 21 3 9 callsubr
        </CharString>
        <CharString name="U">
          94 -12 75 592 -26 callsubr
          256 85 vstem
          -94 callsubr
          endchar
        </CharString>
        <CharString name="Uacute">
          94 -12 75 592 -20 96 -21 119 -93 callsubr
          -106 174 -71 callsubr
        </CharString>
        <CharString name="Ucircumflex">
          94 -12 75 592 -20 97 -21 129 -93 callsubr
          -203 105 -89 callsubr
        </CharString>
        <CharString name="Udieresis">
          94 -12 75 592 -20 96 -21 118 -93 callsubr
          -236 128 -107 callsubr
        </CharString>
        <CharString name="Ugrave">
          94 -12 75 592 -20 96 -21 119 -93 callsubr
          -218 55 -47 callsubr
        </CharString>
        <CharString name="V">
          48 33 callsubr
          515 655 rmoveto
          -90 hlineto
          -160 -573 -160 573 rlineto
          -90 hlineto
          194 -655 rlineto
          112 hlineto
          endchar
        </CharString>
        <CharString name="W">
          366 33 callsubr
          823 655 rmoveto
          -90 hlineto
          -119 -562 -132 562 rlineto
          -116 hlineto
          -131 -562 -120 562 rlineto
          -90 hlineto
          150 -655 rlineto
          114 hlineto
          135 558 136 -558 rlineto
          114 hlineto
          endchar
        </CharString>
        <CharString name="X">
          41 33 callsubr
          259 268 rmoveto
          146 -268 rlineto
          103 hlineto
          -189 336 178 319 rlineto
          -94 hlineto
          -137 -250 -137 250 rlineto
          -102 hlineto
          180 -317 -192 -338 rlineto
          98 hlineto
          endchar
        </CharString>
        <CharString name="Y">
          13 33 callsubr
          205 85 vstem
          -15 callsubr
          endchar
        </CharString>
        <CharString name="Yacute">
          13 -34 callsubr
          96 -21 119 -20 hstemhm
          205 85 hintmask 11001000
          -15 callsubr
          hintmask 00110000
          57 604 -71 callsubr
        </CharString>
        <CharString name="Z">
          13 0 77 501 77 hstem
          440 hmoveto
          77 -296 vlineto
          296 511 rlineto
          67 -389 -77 290 vlineto
          -296 -511 rlineto
          -67 vlineto
          endchar
        </CharString>
        <CharString name="a">
          -13 callsubr
          20 callsubr
          hintmask 10111100
          -98 callsubr
          hintmask 01111100
          -78 81 vlineto
          hintmask 10111100
          -81 callsubr
          endchar
        </CharString>
        <CharString name="aacute">
          -13 callsubr
          67 -21 139 -20 -102 callsubr
          hintmask 00001100
          144 621 -59 callsubr
        </CharString>
        <CharString name="acircumflex">
          -13 8 0 97 195 endchar
        </CharString>
        <CharString name="acute">
          -171 567 42 callsubr
          hstem
          236 685 -59 callsubr
        </CharString>
        <CharString name="acute.cap">
          65 callsubr
          270 -25 callsubr
        </CharString>
        <CharString name="adieresis">
          -13 17 0 97 200 endchar
        </CharString>
        <CharString name="ae">
          243 -12 75 155 70 -50 68 124 70 20 callsubr
          176 85 hintmask 11011110
          655 218 rmoveto
          103 vlineto
          117 -62 62 -111 -56 -42 -20 -37 -24 vhcurveto
          38 -24 -45 19 -62 hhcurveto
          -35 -56 -8 -7 -44 hvcurveto
          -70 vlineto
          6 35 61 9 39 hhcurveto
          55 25 -23 -56 hvcurveto
          -58 vlineto
          hintmask 10111110
          7 callsubr
          -95 -56 -62 -79 hvcurveto
          -28 vlineto
          -92 50 -57 77 59 48 37 65 41 vhcurveto
          -66 19 48 -36 101 26 callsubr
          -70 -34 28 68 hvcurveto
          hintmask 11011110
          59 vlineto
          -85 -64 rmoveto
          -58 -32 -41 -32 -35 hhcurveto
          -35 -25 29 50 hvcurveto
          11 vlineto
          hintmask 10111110
          -29 callsubr
          85 108 rmoveto
          59 2 34 31 52 hhcurveto
          54 34 -34 -64 hvcurveto
          hintmask 11011110
          -43 -176 vlineto
          endchar
        </CharString>
        <CharString name="agrave">
          -13 47 0 97 193 endchar
        </CharString>
        <CharString name="ampersand">
          48 -12 72 238 69 229 71 hstemhm
          35 85 -60 83 226 82 hintmask 11101100
          245 596 rmoveto
          42 40 -5 -6 34 hvcurveto
          2 71 rlineto
          7 -45 -36 4 -37 hhcurveto
          -121 -64 -71 -89 hvcurveto
          -22 vlineto
          -64 26 -52 66 -29 vhcurveto
          hintmask 11110100
          -75 -23 -42 -59 -74 vvcurveto
          -22 vlineto
          -104 57 -70 176 61 36 7 18 86 vhcurveto
          285 74 69 -74 73 -82 -73 -101 vlineto
          hintmask 11101100
          -82 -43 43 68 hvcurveto
          22 vlineto
          61 30 35 72 vhcurveto
          124 -523 rmoveto
          -9 -40 -27 -4 -34 hhcurveto
          hintmask 11110100
          -102 -46 38 63 hvcurveto
          27 vlineto
          67 45 43 97 vhcurveto
          107 hlineto
          endchar
        </CharString>
        <CharString name="aring">
          -13 callsubr
          46 -21 200 -20 -102 callsubr
          hintmask 00001100
          155 561 -75 callsubr
        </CharString>
        <CharString name="asciicircum">
          13 424 -21 280 -20 hstem
          430 403 rmoveto
          -145 280 rlineto
          -75 hlineto
          -145 -280 rlineto
          83 hlineto
          99 201 100 -201 rlineto
          endchar
        </CharString>
        <CharString name="asciitilde">
          38 251 73 -45 73 hstemhm
          hintmask 01000000
          437 279 61 callsubr
          hintmask 10000000
          0 -61 -25 -37 vhcurveto
          hintmask 01000000
          -66 -19 28 -71 hhcurveto
          hintmask 10000000
          -58 -42 -28 0 hvcurveto
          -70 vlineto
          hintmask 01000000
          0 61 25 37 vhcurveto
          hintmask 10000000
          68 17 -28 71 hhcurveto
          hintmask 01000000
          58 42 28 0 hvcurveto
          endchar
        </CharString>
        <CharString name="asterisk">
          -72 431 -21 285 -20 hstem
          239 695 rmoveto
          -69 hlineto
          10 -111 -102 43 -23 -66 110 -24 -74 -85 56 -42 57 97 57 -96 57 41 -74 84 111 25 -23 66 -103 -44 rlineto
          endchar
        </CharString>
        <CharString name="at">
          478 -185 76 124 75 322 76 131 76 -17 callsubr
          118 86 436 85 vstem
          281 182 rmoveto
          -1 -8 -2 -23 -8 vvcurveto
          -82 40 -46 74 50 57 37 57 47 vhcurveto
          -59 8 43 -35 75 hhcurveto
          133 80 106 147 hvcurveto
          50 vlineto
          248 -132 129 -283 -273 -122 -168 -239 vhcurveto
          -100 vlineto
          -242 125 -131 270 vhcurveto
          135 76 -135 hlineto
          -206 -104 103 194 hvcurveto
          100 vlineto
          213 115 118 195 220 110 -104 -197 vhcurveto
          -50 vlineto
          -104 -57 -74 -70 -37 -14 19 29 3 1 11 1 6 vhcurveto
          40 317 rlineto
          -80 hlineto
          -5 -41 rlineto
          23 -27 -46 31 -44 hhcurveto
          -89 -60 -59 -109 -14 hvcurveto
          119 -229 rmoveto
          -33 -21 20 50 9 1 11 2 12 hvcurveto
          15 115 rlineto
          73 9 34 31 45 hhcurveto
          31 39 -20 -29 24 hvcurveto
          -22 -181 rlineto
          -59 -39 -46 -32 -39 hhcurveto
          endchar
        </CharString>
        <CharString name="atilde">
          -13 callsubr
          85 75 -50 75 -102 callsubr
          hintmask 00000100
          170 551 61 callsubr
          hintmask 00001000
          57 callsubr
          hintmask 00000100
          11 callsubr
          hintmask 00001000
          -70 vlineto
          hintmask 00000100
          56 callsubr
          hintmask 00001000
          1 callsubr
        </CharString>
        <CharString name="b">
          9 -12 71 365 76 183 -26 callsubr
          176 85 vstem
          160 683 rmoveto
          -85 -513 hlineto
          -121 51 -61 119 122 54 64 120 vhcurveto
          158 vlineto
          112 -48 58 -82 -50 -46 -28 -49 -35 vhcurveto
          111 1 rmoveto
          38 27 -26 -80 hvcurveto
          -156 vlineto
          -68 -29 -35 -62 -52 -33 35 66 vhcurveto
          182 24 callsubr
          39 hhcurveto
          endchar
        </CharString>
        <CharString name="backslash">
          38 21 -21 683 -20 hstem
          405 hmoveto
          -205 683 rlineto
          -85 hlineto
          205 -683 rlineto
          endchar
        </CharString>
        <CharString name="bar">
          38 -91 -21 910 58 callsubr
          302 -112 rmoveto
          910 -85 -910 vlineto
          endchar
        </CharString>
        <CharString name="braceleft">
          46 callsubr
          208 85 cntrmask 11100000
          208 43 rmoveto
          -127 37 -35 134 vhcurveto
          70 vlineto
          -74 -12 14 75 hvcurveto
          179 vlineto
          68 -17 33 -41 14 vhcurveto
          40 13 18 34 68 vvcurveto
          195 vlineto
          61 17 12 69 vhcurveto
          70 vlineto
          -135 -36 -31 -126 hvcurveto
          -181 vlineto
          -62 -17 -18 -48 vhcurveto
          -25 -70 25 hlineto
          48 17 -19 -61 hvcurveto
          endchar
        </CharString>
        <CharString name="braceright">
          46 callsubr
          226 85 cntrmask 11100000
          311 219 rmoveto
          61 17 19 48 vhcurveto
          25 70 -25 hlineto
          -48 -17 18 62 hvcurveto
          181 vlineto
          126 -36 31 -135 vhcurveto
          -70 vlineto
          69 17 -12 -61 hvcurveto
          -195 vlineto
          -68 18 -34 40 -13 vhcurveto
          -41 -14 -17 -33 -68 vvcurveto
          -179 vlineto
          -75 -12 -14 -74 vhcurveto
          -70 vlineto
          134 37 35 127 hvcurveto
          endchar
        </CharString>
        <CharString name="bracketleft">
          69 callsubr
          157 85 vstem
          362 -116 rmoveto
          70 -120 760 120 70 -205 -900 vlineto
          endchar
        </CharString>
        <CharString name="bracketright">
          69 callsubr
          277 85 vstem
          362 -116 rmoveto
          900 -205 -70 120 -760 -120 -70 vlineto
          endchar
        </CharString>
        <CharString name="brokenbar">
          38 -94 -21 916 58 callsubr
          302 408 rmoveto
          393 -85 -393 vlineto
          85 -523 rmoveto
          393 -85 -393 vlineto
          endchar
        </CharString>
        <CharString name="bullet">
          -247 221 -21 135 -20 hstem
          180 284 rmoveto
          33 -23 18 -40 -39 -23 -18 -33 vhcurveto
          -33 vlineto
          -33 23 -18 39 40 23 18 33 vhcurveto
          endchar
        </CharString>
        <CharString name="c">
          -78 -12 75 362 50 callsubr
          251 -12 rmoveto
          -62 callsubr
          -118 57 -64 124 vhcurveto
          endchar
        </CharString>
        <CharString name="caron">
          66 callsubr
          100 690 rmoveto
          -70 vlineto
          130 -74 130 74 rlineto
          70 vlineto
          -130 -65 rlineto
          endchar
        </CharString>
        <CharString name="caron.cap">
          -22 733 -21 129 -20 hstem
          90 841 17 callsubr
        </CharString>
        <CharString name="ccedilla">
          -81 -176 -21 185 75 362 50 callsubr
          304 6 callsubr
          9 29 rlineto
          -62 callsubr
          -97 38 -60 81 -18 vhcurveto
          -16 -54 -40 callsubr
        </CharString>
        <CharString name="cedilla">
          -183 -176 -21 225 -20 hstem
          190 6 callsubr
          21 69 rlineto
          -63 hlineto
          -27 -87 19 callsubr
          0 0 -13 0 vhcurveto
          -55 callsubr
        </CharString>
        <CharString name="cent">
          38 -67 -21 77 74 362 74 77 -20 hstem
          120 85 45 75 vstem
          325 -88 rmoveto
          77 vlineto
          22 1 19 3 33 5 -2 75 rcurveline
          -58 callsubr
          -33 5 -19 3 -22 1 rlinecurve
          77 -75 -81 vlineto
          -89 -16 -41 -62 -99 vvcurveto
          -148 vlineto
          -101 41 -61 89 -15 vhcurveto
          -81 vlineto
          endchar
        </CharString>
        <CharString name="circumflex">
          66 callsubr
          230 611 18 callsubr
        </CharString>
        <CharString name="circumflex.cap">
          -22 732 -21 129 -20 hstem
          230 760 -89 callsubr
        </CharString>
        <CharString name="colon">
          -261 0 392 46 46 endchar
        </CharString>
        <CharString name="comma">
          -262 -140 -21 269 -20 hstem
          165 63 -37 callsubr
        </CharString>
        <CharString name="commaaccent">
          -182 -67 73 callsubr
          hstem
          181 51 -88 callsubr
          endchar
        </CharString>
        <CharString name="copyright">
          164 -15 66 78 68 215 68 70 66 hstem
          70 71 58 81 225 71 vstem
          505 186 rmoveto
          -80 -65 -55 -117 -117 -65 55 80 vhcurveto
          229 vlineto
          80 65 55 117 117 65 -54 -80 vhcurveto
          71 -12 rmoveto
          122 -73 90 -180 -180 -73 -90 -122 vhcurveto
          -207 vlineto
          -122 73 -90 180 180 73 90 122 vhcurveto
          -239 -68 rmoveto
          25 19 2 5 34 hvcurveto
          -2 66 rlineto
          -3 -25 -22 -2 -29 hhcurveto
          -35 -22 27 54 hvcurveto
          55 vlineto
          55 22 24 35 29 22 -2 -3 25 vhcurveto
          2 66 rlineto
          4 -24 -29 3 -25 hhcurveto
          -91 -47 -51 -96 hvcurveto
          -56 vlineto
          -98 46 -50 92 vhcurveto
          endchar
        </CharString>
        <CharString name="currency">
          38 114 -21 39 72 217 73 29 -20 hstem
          84 82 183 82 vstem
          475 149 rmoveto
          -65 64 rlineto
          14 27 7 26 37 vvcurveto
          20 vlineto
          34 -5 25 -12 25 vhcurveto
          61 60 -56 56 -56 -57 rlineto
          18 -28 -35 10 -42 hhcurveto
          -41 -34 -9 -17 -28 hvcurveto
          -54 55 -56 -56 58 -57 rlineto
          -13 -26 -6 -26 -35 vvcurveto
          -20 vlineto
          -38 8 -28 15 -27 vhcurveto
          -62 -61 56 -56 60 61 rlineto
          -15 27 32 -7 38 hhcurveto
          39 33 8 16 27 hvcurveto
          62 -63 rlineto
          -70 210 rmoveto
          -56 -25 -43 -66 -67 -25 43 56 vhcurveto
          20 vlineto
          55 26 43 66 67 24 -43 -55 vhcurveto
          endchar
        </CharString>
        <CharString name="d">
          9 -12 76 -43 -21 424 76 183 -20 hstemhm
          70 85 176 85 hintmask 10111100
          64 callsubr
          52 46 32 59 39 vhcurveto
          hintmask 01111100
          -79 81 683 -85 -233 vlineto
          23 -30 -47 27 -43 hhcurveto
          -92 -49 -63 -104 hvcurveto
          hintmask 10111100
          -32 callsubr
        </CharString>
        <CharString name="degree">
          118 327 71 226 71 hstem
          77 81 169 81 vstem
          408 500 rmoveto
          22 vlineto
          112 -55 61 -110 -110 -56 -61 -112 vhcurveto
          -22 vlineto
          -112 56 -61 110 110 55 61 112 vhcurveto
          -81 hmoveto
          -70 -31 -32 -53 -54 -31 32 70 vhcurveto
          22 vlineto
          70 31 32 54 54 30 -32 -70 vhcurveto
          endchar
        </CharString>
        <CharString name="dieresis">
          -51 598 -21 118 -20 hstem
          184 650 -107 callsubr
        </CharString>
        <CharString name="dieresis.cap">
          -51 731 -21 118 -20 hstem
          184 783 -107 callsubr
        </CharString>
        <CharString name="divide">
          38 132 -21 154 70 154 -20 hstem
          437 265 59 callsubr
          226 -94 rmoveto
          4 callsubr
          291 vmoveto
          4 callsubr
          endchar
        </CharString>
        <CharString name="dollar">
          38 -73 -21 82 73 479 72 83 -20 hstem
          74 85 67 75 59 85 vstem
          301 -94 rmoveto
          87 vlineto
          107 15 37 58 89 vvcurveto
          5 vlineto
          98 -33 38 -114 34 vhcurveto
          -63 19 rlineto
          -67 20 -9 17 48 vvcurveto
          20 vlineto
          56 30 30 88 46 48 -7 -7 37 vhcurveto
          2 73 -36 5 -37 6 -36 2 rlinecurve
          83 -75 -85 vlineto
          -109 -12 -43 -55 -97 vvcurveto
          -5 vlineto
          -106 31 -35 106 -32 vhcurveto
          62 -19 rlineto
          73 -22 14 -17 -43 vvcurveto
          -20 vlineto
          -56 -32 -30 -96 -43 -39 6 11 -49 vhcurveto
          -2 -73 42 -8 42 -8 43 -1 rlinecurve
          -82 vlineto
          endchar
        </CharString>
        <CharString name="dotaccentcmb">
          -231 730 43 callsubr
          hstem
          181 783 -99 callsubr
        </CharString>
        <CharString name="dotaccentcmb.cap">
          -231 730 43 callsubr
          hstem
          181 783 -77 callsubr
          0 0 -29 0 vhcurveto
          -78 callsubr
          endchar
        </CharString>
        <CharString name="dotlessi">
          -237 34 callsubr
          80 85 vstem
          -18 callsubr
          endchar
        </CharString>
        <CharString name="dotlessj">
          32 callsubr
          hstem
          75 85 vstem
          -22 callsubr
          endchar
        </CharString>
        <CharString name="e">
          27 callsubr
          hstem
          70 85 172 85 vstem
          -91 callsubr
          endchar
        </CharString>
        <CharString name="eacute">
          27 callsubr
          67 -21 139 -76 callsubr
          173 399 -59 callsubr
        </CharString>
        <CharString name="ecircumflex">
          -15 13 0 101 195 endchar
        </CharString>
        <CharString name="edieresis">
          27 callsubr
          98 -21 118 -76 callsubr
          58 364 -107 callsubr
        </CharString>
        <CharString name="egrave">
          -15 48 0 101 193 endchar
        </CharString>
        <CharString name="eight">
          38 -12 71 228 66 194 66 hstemhm
          65 85 -59 83 172 83 -59 85 hintmask 11110010
          455 163 rmoveto
          15 vlineto
          69 -32 48 -57 26 vhcurveto
          hintmask 11101100
          42 25 21 46 58 vvcurveto
          5 vlineto
          102 -66 56 -103 -103 -66 -57 -101 vhcurveto
          -5 vlineto
          -58 21 -46 42 -25 vhcurveto
          hintmask 11110010
          -59 -26 -30 -49 -68 vvcurveto
          -15 vlineto
          -110 69 -65 126 127 68 66 109 vhcurveto
          hintmask 11101100
          -109 278 rmoveto
          -62 -23 -26 -63 -62 -24 26 62 vhcurveto
          19 vlineto
          57 27 30 59 57 29 -27 -60 vhcurveto
          hintmask 11110010
          24 -305 rmoveto
          -57 -38 -39 -72 -72 -38 39 57 vhcurveto
          25 vlineto
          68 41 39 69 68 42 -38 -69 vhcurveto
          endchar
        </CharString>
        <CharString name="emdash">
          228 263 65 hstem
          645 263 rmoveto
          65 -580 -65 vlineto
          endchar
        </CharString>
        <CharString name="endash">
          128 263 65 hstem
          545 263 rmoveto
          65 -480 -65 vlineto
          endchar
        </CharString>
        <CharString name="equal">
          38 180 70 101 70 hstem
          437 180 59 callsubr
          354 171 59 callsubr
          endchar
        </CharString>
        <CharString name="eth">
          15 -12 71 304 76 192 64 -17 callsubr
          176 85 vstem
          115 631 rmoveto
          49 45 -14 -26 36 hvcurveto
          -68 -20 rlineto
          -66 vlineto
          117 34 rlineto
          26 -40 16 -51 -62 vvcurveto
          -25 vlineto
          54 -38 -45 24 -45 hhcurveto
          -82 -51 -56 -111 hvcurveto
          -115 vlineto
          -116 52 -53 121 114 59 65 117 vhcurveto
          170 vlineto
          92 -17 74 -31 56 vhcurveto
          59 17 rlineto
          66 vlineto
          -99 -29 rlineto
          53 -52 -73 26 -93 hhcurveto
          110 -332 rmoveto
          36 42 -27 -55 33 hvcurveto
          -133 vlineto
          -58 -28 -31 -60 -57 -31 28 61 vhcurveto
          112 vlineto
          73 26 30 39 vhcurveto
          endchar
        </CharString>
        <CharString name="exclam">
          -271 9 -21 707 -20 hstem
          61 88 vstem
          146 200 rmoveto
          7 495 rlineto
          -95 hlineto
          7 -495 rlineto
          96 -138 -99 callsubr
        </CharString>
        <CharString name="exclamdown">
          -271 -185 20 666 21 hstem
          61 88 vstem
          65 310 rmoveto
          -7 -495 rlineto
          95 hlineto
          -7 495 rlineto
          15 167 rmoveto
          29 -20 16 -36 -35 -20 -16 -29 -33 callsubr
          -30 20 -16 35 36 20 16 30 vhcurveto
          endchar
        </CharString>
        <CharString name="f">
          -149 21 -21 418 70 137 70 hstem
          105 85 vstem
          105 539 rmoveto
          -51 -70 -70 70 -418 85 418 90 70 -90 64 vlineto
          48 27 25 39 24 20 -2 -3 18 vhcurveto
          68 vlineto
          3 -13 -26 4 -24 hhcurveto
          -96 -53 -51 -105 -1 hvcurveto
          endchar
        </CharString>
        <CharString name="five">
          38 -12 72 251 71 149 73 hstem
          82 85 186 85 vstem
          438 176 rmoveto
          36 vlineto
          122 -49 48 -89 -52 -44 -15 -29 -37 vhcurveto
          193 223 73 -308 -358 65 vlineto
          46 41 38 19 53 hhcurveto
          47 27 -28 -68 hvcurveto
          -39 vlineto
          -75 -38 -41 -74 -34 -79 11 8 -36 vhcurveto
          -69 vlineto
          -11 39 62 -11 50 hhcurveto
          131 64 65 123 hvcurveto
          endchar
        </CharString>
        <CharString name="foundryicon">
          382 21 -21 576 -20 hstem
          720 hmoveto
          288 -288 288 -288 -576 vlineto
          576 432 rmoveto
          144 -144 -144 vlineto
          endchar
        </CharString>
        <CharString name="four">
          38 21 -21 129 70 402 -20 hstem
          313 82 vstem
          188 601 rmoveto
          -137 -427 22 -45 rlineto
          239 -129 83 129 74 70 -74 202 -82 -202 -174 hlineto
          126 402 rlineto
          endchar
        </CharString>
        <CharString name="g">
          4 -197 71 130 77 76 71 187 73 -59 71 hstemhm
          40 78 -65 85 173 85 -60 83 hintmask 1111010010000000
          69 -179 rmoveto
          -11 48 59 -7 39 hhcurveto
          168 36 45 80 hvcurveto
          37 vlineto
          62 -42 44 -61 5 vhcurveto
          -149 11 rlineto
          -39 3 -10 12 19 vvcurveto
          6 vlineto
          13 7 14 15 13 vhcurveto
          -7 23 28 -3 34 hhcurveto
          hintmask 1111010100000000
          111 60 68 94 hvcurveto
          22 vlineto
          27 -6 28 -14 21 vhcurveto
          85 -3 rlineto
          75 vlineto
          -156 -2 rlineto
          hintmask 1110101100000000
          8 -22 -27 5 -31 hhcurveto
          -116 -56 -64 -92 hvcurveto
          -22 vlineto
          -56 9 -39 23 -26 vhcurveto
          hintmask 1111010100000000
          -29 -22 -16 -29 -29 vvcurveto
          -20 vlineto
          hintmask 1111001010000000
          -53 34 -35 64 -4 vhcurveto
          150 -10 rlineto
          31 -2 17 -18 -30 vvcurveto
          -9 vlineto
          -50 -16 -16 -105 -45 -62 10 14 -42 vhcurveto
          72 448 rmoveto
          hintmask 1110101100000000
          54 32 29 55 29 30 -6 -7 15 vhcurveto
          7 -18 5 -25 -30 vvcurveto
          -30 vlineto
          -54 -30 -31 -62 -66 -15 14 71 vhcurveto
          endchar
        </CharString>
        <CharString name="germandbls">
          4 -12 75 -42 -21 623 72 -3 callsubr
          63 82 1 85 -17 87 hintmask 01111100
          15 callsubr
          544 vlineto
          58 20 21 51 50 25 -22 -35 vhcurveto
          -28 vlineto
          -70 -83 -7 -85 vvcurveto
          -19 vlineto
          -53 15 -27 50 -28 vhcurveto
          48 -27 rlineto
          hintmask 10111010
          28 -16 10 -16 -30 vvcurveto
          -31 vlineto
          -47 -18 -19 -35 -25 -36 62 callsubr
          33 -6 21 hhcurveto
          104 36 41 108 hvcurveto
          33 vlineto
          56 -25 38 -62 31 vhcurveto
          -47 28 rlineto
          -17 10 -5 11 20 vvcurveto
          15 vlineto
          hintmask 01111100
          51 86 25 84 vvcurveto
          27 vlineto
          76 -59 53 -95 -117 -45 -49 -112 vhcurveto
          -534 vlineto
          endchar
        </CharString>
        <CharString name="grave">
          -97 567 42 callsubr
          hstem
          202 546 rmoveto
          66 hlineto
          -76 139 rlineto
          -85 hlineto
          endchar
        </CharString>
        <CharString name="grave.cap">
          65 callsubr
          200 710 -47 callsubr
        </CharString>
        <CharString name="greater">
          54 callsubr
          259 rmoveto
          75 vlineto
          -360 160 rlineto
          -83 vlineto
          276 -114 -276 -115 rlineto
          -83 vlineto
          endchar
        </CharString>
        <CharString name="guillemotleft">
          6 -11 callsubr
          82 hmoveto
          -20 callsubr
          endchar
        </CharString>
        <CharString name="guillemotright">
          6 21 callsubr
          235 38 callsubr
          -21 callsubr
          -258 hmoveto
          -21 callsubr
          endchar
        </CharString>
        <CharString name="guilsinglleft">
          -164 -11 callsubr
          endchar
        </CharString>
        <CharString name="guilsinglright">
          -164 21 callsubr
          65 38 callsubr
          -21 callsubr
          endchar
        </CharString>
        <CharString name="h">
          9 48 callsubr
          183 -45 callsubr
          260 41 callsubr
        </CharString>
        <CharString name="hbar">
          14 48 callsubr
          53 70 60 -45 callsubr
          130 120 70 -120 60 -85 -60 -70 -70 70 -553 vlineto
          endchar
        </CharString>
        <CharString name="hyphen">
          16 callsubr
        </CharString>
        <CharString name="i">
          -237 13 callsubr
          227 -20 hstem
          80 85 vstem
          -18 callsubr
          98 649 -99 callsubr
        </CharString>
        <CharString name="iacute">
          -237 13 callsubr
          99 51 callsubr
          80 85 hintmask 11001000
          -18 callsubr
          hintmask 00110000
          129 685 -59 callsubr
        </CharString>
        <CharString name="icircumflex">
          -237 -107 0 245 195 endchar
        </CharString>
        <CharString name="idieresis">
          -237 13 callsubr
          130 -21 118 -20 hstemhm
          80 85 hintmask 11001000
          -18 callsubr
          hintmask 00110000
          9 650 -107 callsubr
        </CharString>
        <CharString name="igrave">
          -237 -69 0 245 193 endchar
        </CharString>
        <CharString name="ij">
          -2 -197 73 145 -27 callsubr
          227 -20 hstemhm
          80 85 155 85 hintmask 01111000
          -18 callsubr
          98 649 -101 callsubr
          hintmask 10110100
          142 -673 -63 callsubr
        </CharString>
        <CharString name="itilde">
          -237 -106 0 245 196 endchar
        </CharString>
        <CharString name="j">
          32 callsubr
          227 -4 callsubr
          75 -53 -63 callsubr
        </CharString>
        <CharString name="jcircumflex">
          32 callsubr
          99 -21 144 -24 callsubr
          hintmask 11001000
          -22 callsubr
          hintmask 00110000
          44 123 18 callsubr
        </CharString>
        <CharString name="k">
          -30 13 callsubr
          215 -6 callsubr
          -30 callsubr
        </CharString>
        <CharString name="kcommaaccent">
          -30 45 callsubr
          215 -24 callsubr
          hintmask 11000000
          281 -92 -88 callsubr
          hintmask 00111100
          -121 118 rmoveto
          -30 callsubr
        </CharString>
        <CharString name="kgreenlandic">
          -30 21 -21 488 -6 callsubr
          244 vlineto
          165 -244 rlineto
          102 hlineto
          -178 255 166 233 rlineto
          -95 hlineto
          -160 -232 rlineto
          232 60 callsubr
          endchar
        </CharString>
        <CharString name="l">
          31 callsubr
          683 41 callsubr
        </CharString>
        <CharString name="ldot">
          -153 21 -21 424 43 callsubr
          180 -24 callsubr
          hintmask 10011000
          15 callsubr
          683 -85 -683 vlineto
          hintmask 01100000
          244 477 -99 callsubr
        </CharString>
        <CharString name="less">
          54 callsubr
          99 rmoveto
          83 vlineto
          -276 115 276 114 rlineto
          83 vlineto
          -360 -160 rlineto
          -75 vlineto
          endchar
        </CharString>
        <CharString name="logicalnot">
          38 134 -21 152 70 hstem
          364 76 vstem
          440 113 rmoveto
          222 -361 -70 285 -152 vlineto
          endchar
        </CharString>
        <CharString name="lslash">
          31 callsubr
          380 vlineto
          90 28 rlineto
          70 vlineto
          -90 -28 rlineto
          233 -85 -258 vlineto
          -90 -27 rlineto
          -70 vlineto
          90 27 rlineto
          -355 vlineto
          endchar
        </CharString>
        <CharString name="m">
          260 48 callsubr
          -12 -24 callsubr
          171 85 171 85 cntrmask 00011100
          hintmask 11011100
          -8 callsubr
          37 hhcurveto
          37 25 -28 -72 hvcurveto
          -321 85 339 24 callsubr
          37 hhcurveto
          37 25 -28 -72 12 callsubr
          -47 60 -83 -53 -47 -33 -59 -36 vhcurveto
          60 -18 -41 32 -61 hhcurveto
          -50 -46 -31 -54 -35 hvcurveto
          hintmask 10111100
          29 callsubr
        </CharString>
        <CharString name="macron">
          -97 606 75 hstem
          300 606 rmoveto
          75 -215 -75 vlineto
          endchar
        </CharString>
        <CharString name="mu">
          38 49 callsubr
          79 -46 -27 callsubr
          hstemhm
          87 85 176 85 hintmask 11011100
          172 -185 rmoveto
          187 vlineto
          -9 14 19 -5 25 hhcurveto
          42 45 29 53 36 hvcurveto
          hintmask 10111100
          -70 80 488 -85 -340 vlineto
          hintmask 11011100
          -42 callsubr
          -673 vlineto
          endchar
        </CharString>
        <CharString name="multiply">
          38 162 -21 319 -20 hstem
          417 408 rmoveto
          -50 50 -106 -106 -108 108 -53 -54 107 -108 -105 -105 50 -50 105 105 108 -107 54 53 -108 108 rlineto
          endchar
        </CharString>
        <CharString name="n">
          9 48 callsubr
          -12 23 callsubr
          hintmask 11011000
          -8 callsubr
          39 hhcurveto
          39 26 -28 -72 10 callsubr
          -52 -46 -31 -54 -35 vhcurveto
          hintmask 10111000
          29 callsubr
        </CharString>
        <CharString name="nacute">
          9 97 0 110 194 endchar
        </CharString>
        <CharString name="nbspace">
          -182 endchar
        </CharString>
        <CharString name="nine">
          38 -12 71 152 74 255 72 40 callsubr
          445 208 rmoveto
          214 vlineto
          124 -64 66 -120 -123 -63 -66 -119 vhcurveto
          -39 vlineto
          -118 56 -59 93 44 46 23 44 46 vhcurveto
          -76 vlineto
          -103 -39 -40 -80 -28 -69 10 6 -32 vhcurveto
          -71 vlineto
          -5 22 63 -11 44 hhcurveto
          135 69 66 154 hvcurveto
          -85 142 rmoveto
          -35 -38 -43 -30 -38 hhcurveto
          -51 -30 34 66 hvcurveto
          47 vlineto
          72 34 36 67 65 34 -37 -76 vhcurveto
          endchar
        </CharString>
        <CharString name="ntilde">
          9 18 0 110 196 endchar
        </CharString>
        <CharString name="numbersign">
          38 21 -21 125 70 223 70 125 -20 hstem
          97 85 156 85 vstem
          503 125 rmoveto
          70 -80 223 80 70 -80 125 -85 -125 -156 125 -85 -125 -80 -70 80 -223 -80 -70 80 -125 85 125 156 -125 85 125 vlineto
          -85 70 rmoveto
          -156 223 156 hlineto
          endchar
        </CharString>
        <CharString name="o">
          55 callsubr
          hstem
          37 callsubr
          vstem
          -90 callsubr
          endchar
        </CharString>
        <CharString name="oacute">
          55 callsubr
          67 -21 139 -20 -70 callsubr
          hintmask 00110000
          -94 515 -59 callsubr
        </CharString>
        <CharString name="ocircumflex">
          10 13 0 111 195 endchar
        </CharString>
        <CharString name="odieresis">
          10 33 0 111 200 endchar
        </CharString>
        <CharString name="oe">
          261 -12 75 155 70 141 71 hstem
          37 callsubr
          176 85 vstem
          683 218 rmoveto
          103 vlineto
          113 -58 66 -113 -61 -45 -23 -37 -28 vhcurveto
          37 -29 -44 23 -61 hhcurveto
          -122 -52 -70 -112 hvcurveto
          -148 vlineto
          -112 53 -70 123 61 43 23 37 28 vhcurveto
          -39 31 45 -21 72 26 callsubr
          -71 -33 29 67 hvcurveto
          59 vlineto
          -85 -54 rmoveto
          -6 vlineto
          -65 -2 -34 -34 -55 hhcurveto
          -57 -34 36 68 hvcurveto
          162 25 callsubr
          56 35 -34 -68 vhcurveto
          85 5 rmoveto
          64 34 33 54 54 34 -34 -64 vhcurveto
          -43 -176 vlineto
          endchar
        </CharString>
        <CharString name="ograve">
          10 50 0 111 193 endchar
        </CharString>
        <CharString name="one">
          38 0 73 528 -20 hstem
          237 85 vstem
          434 hmoveto
          73 -112 528 -75 vlineto
          -162 -66 17 -73 133 57 rlineto
          2 -446 -128 -73 hlineto
          endchar
        </CharString>
        <CharString name="onehalf">
          529 0 66 -45 -21 181 66 118 64 172 -20 21 -20 hstemhm
          171 80 616 77 hintmask 01001000
          394 -1 callsubr
          hintmask 10010001
          484 365 -65 callsubr
          hintmask 00100110
          -464 -184 -44 callsubr
        </CharString>
        <CharString name="onequarter">
          537 21 -21 90 64 27 66 354 -20 21 -20 hstemhm
          171 80 603 76 hintmask 11010010
          394 -51 callsubr
          hintmask 00101100
          -507 -240 -44 callsubr
        </CharString>
        <CharString name="onesuperior">
          -92 181 66 355 -20 hstem
          171 80 vstem
          331 181 -44 callsubr
        </CharString>
        <CharString name="ordfeminine">
          38 0 73 141 76 145 68 94 70 hstem
          90 86 168 85 vstem
          429 506 -53 callsubr
          -70 -46 callsubr
          -26 vlineto
          7 callsubr
          -95 -56 -58 -69 hvcurveto
          -28 vlineto
          -82 50 -52 77 47 45 30 60 39 vhcurveto
          -78 81 vlineto
          -226 vmoveto
          73 -339 -73 vlineto
          146 290 rmoveto
          -35 -25 24 40 hvcurveto
          11 vlineto
          42 30 28 56 21 34 -2 -5 27 vhcurveto
          -62 vlineto
          -56 -32 -41 -20 -35 hhcurveto
          endchar
        </CharString>
        <CharString name="ordmasculine">
          38 0 73 142 71 310 71 hstem
          84 85 182 85 vstem
          431 hmoveto
          73 -342 -73 vlineto
          262 390 -7 callsubr
          102 -35 callsubr
          115 -56 67 -120 -120 -56 -67 -115 vhcurveto
          -88 vlineto
          -121 62 -61 114 115 61 61 121 vhcurveto
          endchar
        </CharString>
        <CharString name="oslash">
          10 -30 -21 39 71 370 71 38 -20 hstem
          37 callsubr
          vstem
          94 -51 rmoveto
          44 66 rlineto
          -17 27 36 -10 45 hhcurveto
          122 54 69 113 hvcurveto
          148 vlineto
          37 -6 32 -12 27 vhcurveto
          82 124 rlineto
          -88 hlineto
          -44 -66 rlineto
          18 -27 -36 10 -45 hhcurveto
          -122 -54 -69 -113 hvcurveto
          -148 vlineto
          -38 6 -33 12 -27 vhcurveto
          -82 -123 rlineto
          149 214 rmoveto
          162 25 callsubr
          30 24 -10 -19 15 vhcurveto
          -160 -242 rlineto
          182 5 rmoveto
          -68 -34 -36 -57 -30 -23 9 19 -16 vhcurveto
          160 239 rlineto
          endchar
        </CharString>
        <CharString name="otilde">
          55 callsubr
          85 75 -50 75 -70 callsubr
          hintmask 00010000
          -49 445 61 callsubr
          hintmask 00100000
          57 callsubr
          hintmask 00010000
          11 callsubr
          hintmask 00100000
          -70 vlineto
          hintmask 00010000
          56 callsubr
          hintmask 00100000
          1 callsubr
        </CharString>
        <CharString name="p">
          8 49 callsubr
          75 361 76 -12 -24 callsubr
          175 85 hintmask 11101100
          -9 callsubr
          -52 -45 -30 -53 -35 vhcurveto
          hintmask 11011100
          71 -80 -673 vlineto
          hintmask 11101100
          -31 callsubr
        </CharString>
        <CharString name="paragraph">
          64 -164 -21 498 75 222 73 hstem
          20 82 92 86 105 86 vstem
          144 683 rmoveto
          -83 -41 -47 -76 hvcurveto
          -127 vlineto
          -79 44 -41 80 vhcurveto
          50 -498 86 868 hlineto
          105 hmoveto
          -868 86 868 vlineto
          -369 -225 rmoveto
          82 vlineto
          54 15 16 37 vhcurveto
          40 -222 -40 hlineto
          -37 -15 17 53 hvcurveto
          endchar
        </CharString>
        <CharString name="parenleft">
          68 callsubr
          163 85 vstem
          163 65 rmoveto
          -147 29 -37 142 vhcurveto
          72 vlineto
          -78 4 -8 15 71 vvcurveto
          597 vlineto
          58 14 12 72 5 vhcurveto
          72 vlineto
          -142 -29 -37 -147 hvcurveto
          endchar
        </CharString>
        <CharString name="parenright">
          68 callsubr
          271 85 vstem
          356 603 rmoveto
          147 -29 37 -142 vhcurveto
          -72 vlineto
          72 -5 14 -12 -58 vvcurveto
          -597 vlineto
          -71 -8 -15 -78 -4 vhcurveto
          -72 vlineto
          142 29 37 147 hvcurveto
          endchar
        </CharString>
        <CharString name="percent">
          440 -12 75 -42 -21 263 75 200 75 hstemhm
          65 85 145 85 162 85 145 85 hintmask 01111111
          676 613 rmoveto
          -87 hlineto
          -335 -613 rlineto
          87 hlineto
          39 423 30 callsubr
          -23 callsubr
          562 -305 30 callsubr
          hintmask 10111111
          -23 callsubr
          endchar
        </CharString>
        <CharString name="period">
          -261 9 43 callsubr
          hstem
          166 62 -99 callsubr
        </CharString>
        <CharString name="periodcentered">
          -261 210 43 callsubr
          hstem
          166 263 -99 callsubr
        </CharString>
        <CharString name="plus">
          38 134 -21 152 71 152 -20 hstem
          222 76 vstem
          438 -2 callsubr
        </CharString>
        <CharString name="plusminus">
          38 0 70 64 -21 152 71 152 -20 hstemhm
          222 76 hintmask 10000000
          437 hmoveto
          70 -356 -70 vlineto
          hintmask 01111000
          357 -2 callsubr
        </CharString>
        <CharString name="q">
          9 49 callsubr
          76 360 76 -12 -20 hstemhm
          70 85 176 85 hintmask 11011100
          64 callsubr
          50 45 30 55 38 vhcurveto
          -258 85 673 -81 -41 vlineto
          hintmask 11101100
          23 -30 -49 30 -45 hhcurveto
          -92 -49 -63 -104 hvcurveto
          -32 callsubr
        </CharString>
        <CharString name="question">
          -87 9 -21 639 68 hstem
          112 81 62 85 vstem
          151 627 rmoveto
          81 23 -23 -48 hvcurveto
          -22 vlineto
          -46 -8 -22 -37 -44 vhcurveto
          -58 -68 rlineto
          -35 -41 -5 -16 -65 vvcurveto
          -32 81 45 vlineto
          41 6 13 21 22 vhcurveto
          33 36 rlineto
          63 66 24 49 60 vvcurveto
          25 vlineto
          87 -50 51 -134 -35 -52 -7 -9 -44 vhcurveto
          -70 vlineto
          8 35 52 10 39 hhcurveto
          59 -565 -99 callsubr
        </CharString>
        <CharString name="questiondown">
          -87 -197 68 618 21 hstem
          55 85 62 81 vstem
          244 -129 rmoveto
          -81 -23 23 48 hvcurveto
          22 vlineto
          46 8 22 37 44 vhcurveto
          58 68 rlineto
          35 41 5 16 65 vvcurveto
          32 -81 -45 vlineto
          -41 -6 -13 -21 -22 vhcurveto
          -33 -36 rlineto
          -63 -66 -24 -49 -60 vvcurveto
          -25 vlineto
          -87 50 -51 134 35 52 7 9 44 vhcurveto
          70 vlineto
          -8 -35 -52 -10 -39 hhcurveto
          -59 565 rmoveto
          -30 20 -16 36 35 20 16 30 vhcurveto
          29 vlineto
          29 -20 16 -35 -36 -20 -16 -29 vhcurveto
          endchar
        </CharString>
        <CharString name="quotedbl">
          -107 450 -21 254 -26 callsubr
          55 47 callsubr
          140 -254 rmoveto
          85 254 -85 hlineto
          endchar
        </CharString>
        <CharString name="quotedblbase">
          -125 -87 70 callsubr
          hstemhm
          162 61 -73 callsubr
        </CharString>
        <CharString name="quotedblleft">
          -125 482 20 172 21 hstemhm
          59 526 -69 callsubr
          hintmask 11000000
          140 -30 -69 callsubr
          endchar
        </CharString>
        <CharString name="quotedblright">
          -125 503 70 callsubr
          hstemhm
          162 651 -73 callsubr
        </CharString>
        <CharString name="quoteleft">
          -265 483 20 172 21 hstem
          59 527 -69 callsubr
          endchar
        </CharString>
        <CharString name="quoteright">
          -265 503 70 callsubr
          hstem
          162 651 -95 callsubr
          endchar
        </CharString>
        <CharString name="quotesinglbase">
          -265 -87 70 callsubr
          hstem
          162 61 -95 callsubr
          endchar
        </CharString>
        <CharString name="quotesingle">
          -247 450 -21 254 -20 hstem
          75 47 callsubr
          endchar
        </CharString>
        <CharString name="r">
          -137 13 callsubr
          32 -24 callsubr
          hintmask 10110000
          15 callsubr
          -14 callsubr
          hintmask 11010000
          29 callsubr
        </CharString>
        <CharString name="rcaron">
          -137 -58 0 114 207 endchar
        </CharString>
        <CharString name="rcommaaccent">
          -137 45 callsubr
          32 -24 callsubr
          hintmask 11000000
          166 -92 -88 callsubr
          hintmask 00101100
          -6 118 rmoveto
          -14 callsubr
          hintmask 00110100
          29 callsubr
        </CharString>
        <CharString name="registered">
          54 318 -21 398 -20 hstem
          461 513 rmoveto
          112 -53 70 -140 -140 -53 -70 -112 vhcurveto
          -34 vlineto
          -112 53 -70 140 140 53 70 112 vhcurveto
          -51 -9 rmoveto
          -82 -40 -44 -102 -102 -40 44 82 vhcurveto
          52 vlineto
          82 40 44 102 102 40 -42 -83 vhcurveto
          -172 -142 rmoveto
          84 32 vlineto
          48 -84 rlineto
          50 hlineto
          -54 91 rlineto
          28 12 18 23 28 vvcurveto
          11 vlineto
          41 -23 29 -68 -17 -30 -1 -1 -27 vhcurveto
          -233 vlineto
          77 195 rmoveto
          32 12 -10 -21 hvcurveto
          -9 vlineto
          -19 -12 -12 -30 -8 -14 0 1 -14 vhcurveto
          68 vlineto
          1 8 19 1 7 hhcurveto
          endchar
        </CharString>
        <CharString name="ring">
          -102 546 -21 200 -20 hstem
          305 625 -75 callsubr
        </CharString>
        <CharString name="ring.cap">
          -102 621 -21 55 -20 165 -20 hstem
          305 700 -75 callsubr
        </CharString>
        <CharString name="s">
          -93 -12 75 365 72 hstem
          45 84 146 84 vstem
          135 234 rmoveto
          97 -38 rlineto
          31 -12 12 -19 -31 vvcurveto
          -14 vlineto
          -40 -18 -17 -72 -40 -41 5 11 -44 vhcurveto
          -2 -75 rlineto
          -11 48 41 -5 38 hhcurveto
          126 48 48 92 hvcurveto
          24 vlineto
          49 -32 44 -58 24 vhcurveto
          -94 39 rlineto
          -34 14 -12 13 26 vvcurveto
          8 vlineto
          40 19 19 70 30 34 -4 -8 35 vhcurveto
          2 72 rlineto
          9 -44 -31 3 -30 hhcurveto
          -123 -46 -47 -92 hvcurveto
          -13 vlineto
          -50 31 -42 59 -22 vhcurveto
          endchar
        </CharString>
        <CharString name="section">
          -79 -119 75 668 71 hstemhm
          15 87 -57 87 139 87 -57 87 hintmask 11101000
          271 13 rmoveto
          -41 -19 -16 -69 -49 -37 62 callsubr
          34 -6 45 hhcurveto
          127 48 47 93 hvcurveto
          38 vlineto
          50 -25 39 -39 15 vhcurveto
          hintmask 11010100
          60 12 34 49 60 vvcurveto
          31 vlineto
          50 -31 41 -77 29 vhcurveto
          -107 41 rlineto
          -30 12 -11 15 28 vvcurveto
          33 vlineto
          41 19 19 65 32 31 -4 -8 35 vhcurveto
          2 71 rlineto
          9 -44 -28 3 -32 hhcurveto
          -123 -44 -47 -92 hvcurveto
          -28 vlineto
          -53 28 -40 40 -14 vhcurveto
          hintmask 11101000
          -56 -7 -42 -52 -70 vvcurveto
          -24 vlineto
          -59 30 -35 78 -27 vhcurveto
          107 -37 rlineto
          30 -10 11 -20 -34 vvcurveto
          -31 321 rmoveto
          hintmask 11100100
          41 -12 20 -22 -28 vvcurveto
          -23 vlineto
          -45 -31 -33 -61 -3 vhcurveto
          -46 15 rlineto
          -48 16 -13 15 22 vvcurveto
          25 vlineto
          46 35 37 66 1 vhcurveto
          endchar
        </CharString>
        <CharString name="semicolon">
          -261 -140 -21 269 -20 313 43 callsubr
          hstemhm
          hintmask 00110000
          166 454 -101 callsubr
          hintmask 11000000
          -1 -362 -37 callsubr
        </CharString>
        <CharString name="seven">
          38 21 -21 527 73 hstem
          79 600 rmoveto
          -73 270 -2 vlineto
          -224 -525 rlineto
          91 hlineto
          224 542 rlineto
          58 vlineto
          endchar
        </CharString>
        <CharString name="six">
          38 -12 72 255 74 144 73 40 callsubr
          75 178 rmoveto
          -121 64 -69 120 121 65 64 121 vhcurveto
          39 vlineto
          120 -58 57 -93 -40 -43 -19 -48 -51 vhcurveto
          56 vlineto
          99 64 53 168 3 vhcurveto
          73 vlineto
          -211 -3 -106 -84 -157 vvcurveto
          85 -112 rmoveto
          35 38 43 30 38 hhcurveto
          50 31 -33 -67 hvcurveto
          -47 vlineto
          -73 -35 -35 -66 -65 -34 37 76 vhcurveto
          endchar
        </CharString>
        <CharString name="slash">
          38 21 -21 683 -20 hstem
          200 hmoveto
          205 683 rlineto
          -85 hlineto
          -205 -683 rlineto
          endchar
        </CharString>
        <CharString name="space">
          -182 endchar
        </CharString>
        <CharString name="sterling">
          38 0 74 231 70 168 70 hstem
          141 85 vstem
          226 462 rmoveto
          55 24 26 71 28 34 -7 -6 20 vhcurveto
          68 vlineto
          8 -27 -37 7 -31 hhcurveto
          -114 -53 -50 -106 hvcurveto
          -82 -70 -70 70 -139 vlineto
          -38 -12 -34 -28 -34 vhcurveto
          -60 347 74 -263 vlineto
          27 21 14 32 57 vvcurveto
          121 95 70 -95 vlineto
          endchar
        </CharString>
        <CharString name="t">
          -139 -12 73 357 70 130 -20 hstem
          85 85 vstem
          85 139 rmoveto
          -108 48 -43 105 30 28 5 5 22 vhcurveto
          71 vlineto
          -4 -20 -35 -4 -29 hhcurveto
          -43 -21 20 51 hvcurveto
          286 130 70 -130 130 -69 vlineto
          -16 -130 rlineto
          -70 -70 70 hlineto
          endchar
        </CharString>
        <CharString name="thorn">
          8 49 callsubr
          75 361 76 183 -26 callsubr
          175 85 vstem
          -9 callsubr
          -50 -43 -27 -49 -34 vhcurveto
          259 -85 -868 vlineto
          -31 callsubr
        </CharString>
        <CharString name="three">
          38 -12 71 217 68 199 70 hstemhm
          319 85 -72 85 hintmask 11110000
          229 543 rmoveto
          59 31 -27 -54 hvcurveto
          -19 vlineto
          -69 -29 -30 -63 vhcurveto
          -89 -68 89 hlineto
          hintmask 11101000
          69 36 -34 -68 hvcurveto
          -16 vlineto
          -61 -36 -38 -64 -39 -55 7 6 -35 vhcurveto
          -71 vlineto
          -7 44 50 -6 35 hhcurveto
          123 62 73 102 hvcurveto
          10 vlineto
          64 -35 54 -55 23 vhcurveto
          hintmask 11110000
          52 25 25 47 61 vvcurveto
          10 vlineto
          98 -61 58 -114 -35 -47 -6 -7 -44 vhcurveto
          -71 vlineto
          6 35 52 8 39 hhcurveto
          endchar
        </CharString>
        <CharString name="threequarters">
          518 21 -21 90 64 19 62 314 61 -9 -20 hstemhm
          229 87 519 76 hintmask 11001010
          375 -51 callsubr
          hintmask 00110100
          -650 128 -82 callsubr
        </CharString>
        <CharString name="threesuperior">
          -92 173 62 314 61 hstem
          229 87 vstem
          169 549 -82 callsubr
        </CharString>
        <CharString name="tilde">
          -22 585 71 callsubr
          hintmask 01000000
          360 615 61 callsubr
          hintmask 10000000
          57 callsubr
          hintmask 01000000
          11 callsubr
          hintmask 10000000
          -70 vlineto
          hintmask 01000000
          56 callsubr
          hintmask 10000000
          1 callsubr
        </CharString>
        <CharString name="tilde.cap">
          -22 710 71 callsubr
          hintmask 01000000
          370 740 61 callsubr
          hintmask 10000000
          36 callsubr
          hintmask 01000000
          -28 callsubr
          hintmask 10000000
          -70 vlineto
          hintmask 01000000
          35 callsubr
          hintmask 10000000
          -43 callsubr
        </CharString>
        <CharString name="two">
          38 0 73 468 72 hstem
          340 85 vstem
          236 541 rmoveto
          73 31 -25 -64 hvcurveto
          -18 vlineto
          -47 -7 -21 -38 -48 vhcurveto
          -200 -253 rlineto
          -65 327 73 -225 vlineto
          145 175 rlineto
          72 86 11 44 57 vvcurveto
          22 vlineto
          103 -59 53 -130 -35 -47 -8 -12 -44 vhcurveto
          -73 vlineto
          11 35 52 10 39 hhcurveto
          endchar
        </CharString>
        <CharString name="twosuperior">
          -92 181 66 299 64 hstem
          246 77 vstem
          174 546 -65 callsubr
          endchar
        </CharString>
        <CharString name="u">
          14 -12 79 -46 -21 488 23 callsubr
          hintmask 10111000
          -72 callsubr
          hintmask 01111000
          -70 80 488 vlineto
          endchar
        </CharString>
        <CharString name="uacute">
          14 -12 79 -46 -27 callsubr
          99 -21 139 -64 callsubr
          -58 197 -59 callsubr
        </CharString>
        <CharString name="ucircumflex">
          14 18 0 117 195 endchar
        </CharString>
        <CharString name="udieresis">
          14 -12 79 -46 -27 callsubr
          130 -21 118 -64 callsubr
          -206 162 -107 callsubr
        </CharString>
        <CharString name="ugrave">
          14 35 0 117 193 endchar
        </CharString>
        <CharString name="underscore">
          128 -185 65 hstem
          545 -185 rmoveto
          65 -480 -65 vlineto
          endchar
        </CharString>
        <CharString name="uni0001">
          endchar
        </CharString>
        <CharString name="uni0002">
          endchar
        </CharString>
        <CharString name="uni0003">
          endchar
        </CharString>
        <CharString name="uni0004">
          endchar
        </CharString>
        <CharString name="uni0005">
          endchar
        </CharString>
        <CharString name="uni0006">
          endchar
        </CharString>
        <CharString name="uni0007">
          endchar
        </CharString>
        <CharString name="uni0008">
          endchar
        </CharString>
        <CharString name="uni0009">
          endchar
        </CharString>
        <CharString name="uni0010">
          endchar
        </CharString>
        <CharString name="uni0011">
          endchar
        </CharString>
        <CharString name="uni0012">
          endchar
        </CharString>
        <CharString name="uni0013">
          endchar
        </CharString>
        <CharString name="uni0014">
          endchar
        </CharString>
        <CharString name="uni0015">
          endchar
        </CharString>
        <CharString name="uni0016">
          endchar
        </CharString>
        <CharString name="uni0017">
          endchar
        </CharString>
        <CharString name="uni0018">
          endchar
        </CharString>
        <CharString name="uni0019">
          endchar
        </CharString>
        <CharString name="uni00AD">
          16 callsubr
        </CharString>
        <CharString name="v">
          -40 34 callsubr
          427 38 callsubr
          -90 hlineto
          -116 -426 -116 426 rlineto
          -90 hlineto
          150 -488 rlineto
          111 hlineto
          endchar
        </CharString>
        <CharString name="w">
          206 34 callsubr
          663 38 callsubr
          -90 hlineto
          -77 -413 -97 413 rlineto
          -110 hlineto
          -98 -413 -76 413 rlineto
          -90 hlineto
          109 -488 rlineto
          107 hlineto
          103 414 102 -414 rlineto
          107 hlineto
          endchar
        </CharString>
        <CharString name="x">
          -21 34 callsubr
          339 hmoveto
          97 hlineto
          -152 252 141 236 rlineto
          -97 hlineto
          -98 -174 -98 174 rlineto
          -97 hlineto
          141 -236 -151 -252 rlineto
          97 hlineto
          108 190 rlineto
          endchar
        </CharString>
        <CharString name="y">
          -36 63 callsubr
          hstem
          -68 callsubr
          endchar
        </CharString>
        <CharString name="yacute">
          -32 63 callsubr
          99 -21 139 -39 callsubr
          131 870 -59 callsubr
        </CharString>
        <CharString name="ydieresis">
          -32 63 callsubr
          130 -21 118 -39 callsubr
          -2 835 -107 callsubr
        </CharString>
        <CharString name="yen">
          38 21 -21 601 58 callsubr
          396 78 rmoveto
          70 -94 41 94 70 -65 vlineto
          161 342 rlineto
          -95 hlineto
          -137 -321 -138 321 rlineto
          -95 hlineto
          161 -342 rlineto
          -66 -70 95 -41 -95 -70 95 -78 85 78 hlineto
          endchar
        </CharString>
        <CharString name="z">
          -56 0 75 338 75 hstem
          371 hmoveto
          75 -223 vlineto
          223 348 rlineto
          65 -321 -75 219 vlineto
          -224 -348 rlineto
          -65 vlineto
          endchar
        </CharString>
        <CharString name="zero">
          38 -12 72 481 72 40 callsubr
          445 193 rmoveto
          215 vlineto
          138 -67 67 -118 -118 -67 -67 -138 vhcurveto
          -215 vlineto
          -138 67 -67 118 118 67 67 138 vhcurveto
          -85 -8 rmoveto
          -88 -38 -37 -62 -62 -38 37 88 vhcurveto
          231 vlineto
          88 37 37 63 62 38 -37 -88 vhcurveto
          endchar
        </CharString>
</ttFont>
